name rise30.3154peak39.0474fall46.5389.mot
datacolumns 19
datarows 35
range 14.38661700000000 14.44327900000000
endheader
time	ground_force1_vx	ground_force1_vy	ground_force1_vz	ground_force1_px	ground_force1_py	ground_force1_pz	ground_force2_vx	ground_force2_vy	ground_force2_vz	ground_force2_px	ground_force2_py	ground_force2_pz	ground_torque1_x	ground_torque1_y	ground_torque1_z	ground_torque2_x	ground_torque2_y	ground_torque2_z	
14.38661700000000	-48.79567300000000	814.22893899999997	61.97519300000000	0.16310200000000	0.00000000000000	0.10905500000000	-3.71591200000000	16.40686500000000	4.05850100000000	0.00000000000000	0.00000000000000	0.00000000000000	0.00000000000000	29.76598400000000	0.00000000000000	0.00000000000000	1.68756300000000	0.00000000000000	
14.38828200000000	-49.00249600000000	811.45046300000001	61.84839600000000	0.16226400000000	0.00000000000000	0.10905500000000	-4.68175100000000	22.06873200000000	5.22497800000000	0.00000000000000	0.00000000000000	0.00000000000000	0.00000000000000	29.64834400000000	0.00000000000000	0.00000000000000	2.17989300000000	0.00000000000000	
14.38994600000000	-49.21534400000000	808.54158299999995	61.69792400000000	0.16142500000000	0.00000000000000	0.10905200000000	-5.65700600000000	28.28557200000000	6.44190100000000	0.36072000000000	0.00000000000000	-0.06502000000000	0.00000000000000	29.52604600000000	0.00000000000000	0.00000000000000	4.65192600000000	0.00000000000000	
14.39161100000000	-49.43470500000000	805.50327700000003	61.52327900000000	0.16058400000000	0.00000000000000	0.10904600000000	-6.60410900000000	34.94055400000000	7.67170500000000	0.36626700000000	0.00000000000000	-0.06595500000000	0.00000000000000	29.39919000000000	0.00000000000000	0.00000000000000	5.59497700000000	0.00000000000000	
14.39328600000000	-49.66101400000000	802.33654000000001	61.32399600000000	0.15974100000000	0.00000000000000	0.10903700000000	-7.48638600000000	41.90803500000000	8.87670200000000	0.37115900000000	0.00000000000000	-0.06679900000000	0.00000000000000	29.26787800000000	0.00000000000000	0.00000000000000	6.53298800000000	0.00000000000000	
14.39494700000000	-49.89465400000000	799.04237699999999	61.09964400000000	0.15889800000000	0.00000000000000	0.10902500000000	-8.27070100000000	49.06406000000000	10.02187400000000	0.37550900000000	0.00000000000000	-0.06756700000000	0.00000000000000	29.13221300000000	0.00000000000000	0.00000000000000	7.43940700000000	0.00000000000000	
14.39662000000000	-50.13595300000000	795.62179400000002	60.84983000000000	0.15805300000000	0.00000000000000	0.10901000000000	-8.92960500000000	56.29581900000000	11.07722800000000	0.37940900000000	0.00000000000000	-0.06827200000000	0.00000000000000	28.99230200000000	0.00000000000000	0.00000000000000	8.29108000000000	0.00000000000000	
14.39828400000000	-50.38518100000000	792.07578999999998	60.57419900000000	0.15720800000000	0.00000000000000	0.10899200000000	-9.44278300000000	63.50903800000000	12.01947200000000	0.38293100000000	0.00000000000000	-0.06892400000000	0.00000000000000	28.84825100000000	0.00000000000000	0.00000000000000	9.06960500000000	0.00000000000000	
14.39995200000000	-50.64254900000000	788.40535499999999	60.27243600000000	0.15636200000000	0.00000000000000	0.10896900000000	-9.79772000000000	70.63279199999999	12.83290800000000	0.38613300000000	0.00000000000000	-0.06953000000000	0.00000000000000	28.70016800000000	0.00000000000000	0.00000000000000	9.76209800000000	0.00000000000000	
14.40161900000000	-50.90820600000000	784.61145699999997	59.94426800000000	0.15551700000000	0.00000000000000	0.10894400000000	-9.98964200000000	77.62163400000000	13.50957000000000	0.38906400000000	0.00000000000000	-0.07009700000000	0.00000000000000	28.54815900000000	0.00000000000000	0.00000000000000	10.36140300000000	0.00000000000000	
14.40328300000000	-51.18223900000000	780.69504099999995	59.58946700000000	0.15467300000000	0.00000000000000	0.10891400000000	-10.02082200000000	84.45528100000000	14.04871000000000	0.39176300000000	0.00000000000000	-0.07063000000000	0.00000000000000	28.39233300000000	0.00000000000000	0.00000000000000	10.86579300000000	0.00000000000000	
14.40494700000000	-51.46466900000000	776.65702199999998	59.20784600000000	0.15383000000000	0.00000000000000	0.10888000000000	-9.89943800000000	91.13626400000000	14.45577100000000	0.39426200000000	0.00000000000000	-0.07113200000000	0.00000000000000	28.23279500000000	0.00000000000000	0.00000000000000	11.27827100000000	0.00000000000000	
14.40661700000000	-51.75545200000000	772.49827800000003	58.79926900000000	0.15298900000000	0.00000000000000	0.10884200000000	-9.63813500000000	97.68611799999999	14.74104000000000	0.39658900000000	0.00000000000000	-0.07160800000000	0.00000000000000	28.06964900000000	0.00000000000000	0.00000000000000	11.60560900000000	0.00000000000000	
14.40828400000000	-52.05447800000000	768.21964900000000	58.36364400000000	0.15215200000000	0.00000000000000	0.10879900000000	-9.25247200000000	104.14064999999999	14.91812300000000	0.39876700000000	0.00000000000000	-0.07206100000000	0.00000000000000	27.90299800000000	0.00000000000000	0.00000000000000	11.85724200000000	0.00000000000000	
14.40994700000000	-52.36156900000000	763.82192899999995	57.90093000000000	0.15131800000000	0.00000000000000	0.10875200000000	-8.75940300000000	110.54487000000000	15.00242700000000	0.40081500000000	0.00000000000000	-0.07249300000000	0.00000000000000	27.73294000000000	0.00000000000000	0.00000000000000	12.04413000000000	0.00000000000000	
14.41161000000000	-52.67647600000000	759.30586700000003	57.41113300000000	0.15048800000000	0.00000000000000	0.10870100000000	-8.17589800000000	116.94802900000001	15.00974900000000	0.40275000000000	0.00000000000000	-0.07290600000000	0.00000000000000	27.55957100000000	0.00000000000000	0.00000000000000	12.17770000000000	0.00000000000000	
14.41327800000000	-52.99888300000000	754.67215999999996	56.89431200000000	0.14966400000000	0.00000000000000	0.10864400000000	-7.51781100000000	123.39915700000000	14.95507800000000	0.40458600000000	0.00000000000000	-0.07330200000000	0.00000000000000	27.38298300000000	0.00000000000000	0.00000000000000	12.26892800000000	0.00000000000000	
14.41495200000000	-53.32840600000000	749.92145100000005	56.35057700000000	0.14884600000000	0.00000000000000	0.10858300000000	-6.79901400000000	129.94336100000001	14.85166400000000	0.40633600000000	0.00000000000000	-0.07368300000000	0.00000000000000	27.20326000000000	0.00000000000000	0.00000000000000	12.32761600000000	0.00000000000000	
14.41661800000000	-53.66458900000000	745.05433100000005	55.78008900000000	0.14803600000000	0.00000000000000	0.10851600000000	-6.03084600000000	136.61903899999999	14.71038300000000	0.40800800000000	0.00000000000000	-0.07404900000000	0.00000000000000	27.02048300000000	0.00000000000000	0.00000000000000	12.36187900000000	0.00000000000000	
14.41828200000000	-54.00690600000000	740.07133099999999	55.18306200000000	0.14723400000000	0.00000000000000	0.10844400000000	-5.22184200000000	143.45605000000000	14.53938600000000	0.40961400000000	0.00000000000000	-0.07440400000000	0.00000000000000	26.83472600000000	0.00000000000000	0.00000000000000	12.37785700000000	0.00000000000000	
14.41995000000000	-54.35476400000000	734.97292900000002	54.55976600000000	0.14644100000000	0.00000000000000	0.10836700000000	-4.37772400000000	150.47482400000001	14.34402200000000	0.41115900000000	0.00000000000000	-0.07474600000000	0.00000000000000	26.64605400000000	0.00000000000000	0.00000000000000	12.37961600000000	0.00000000000000	
14.42161900000000	-54.70750000000000	729.75954300000001	53.91052100000000	0.14565900000000	0.00000000000000	0.10828400000000	-3.50160700000000	157.68629300000001	14.12698000000000	0.41265100000000	0.00000000000000	-0.07507800000000	0.00000000000000	26.45452800000000	0.00000000000000	0.00000000000000	12.36923300000000	0.00000000000000	
14.42328400000000	-55.06438300000000	724.43153700000005	53.23570200000000	0.14488800000000	0.00000000000000	0.10819600000000	-2.59435900000000	165.09251200000000	13.88860200000000	0.41409600000000	0.00000000000000	-0.07540000000000	0.00000000000000	26.26019700000000	0.00000000000000	0.00000000000000	12.34700700000000	0.00000000000000	
14.42494800000000	-55.42461400000000	718.98922100000004	52.53573800000000	0.14413100000000	0.00000000000000	0.10810200000000	-1.65506600000000	172.68778200000000	13.62731600000000	0.41549700000000	0.00000000000000	-0.07571200000000	0.00000000000000	26.06310300000000	0.00000000000000	0.00000000000000	12.31176300000000	0.00000000000000	
14.42661100000000	-55.78732900000000	713.43285200000003	51.81111400000000	0.14338600000000	0.00000000000000	0.10800200000000	-0.68154600000000	180.46011200000001	13.34013800000000	0.41686000000000	0.00000000000000	-0.07601600000000	0.00000000000000	25.86327800000000	0.00000000000000	0.00000000000000	12.26121900000000	0.00000000000000	
14.42828200000000	-56.15159800000000	707.76264000000003	51.06236400000000	0.14265700000000	0.00000000000000	0.10789600000000	0.32913300000000	188.39284200000000	13.02317300000000	0.41818800000000	0.00000000000000	-0.07631200000000	0.00000000000000	25.66074400000000	0.00000000000000	0.00000000000000	12.19235700000000	0.00000000000000	
14.42994600000000	-56.51643000000000	701.97875399999998	50.29007900000000	0.14194400000000	0.00000000000000	0.10778400000000	1.38017700000000	196.46627500000000	12.67211400000000	0.41948300000000	0.00000000000000	-0.07660100000000	0.00000000000000	25.45551500000000	0.00000000000000	0.00000000000000	12.10179500000000	0.00000000000000	
14.43161300000000	-56.88076900000000	696.08132400000000	49.49490200000000	0.14124800000000	0.00000000000000	0.10766600000000	2.47465200000000	204.65920700000001	12.28266200000000	0.42074900000000	0.00000000000000	-0.07688200000000	0.00000000000000	25.24759300000000	0.00000000000000	0.00000000000000	11.98610700000000	0.00000000000000	
14.43327700000000	-57.24350500000000	690.07045100000005	48.67752700000000	0.14057100000000	0.00000000000000	0.10754200000000	3.61515000000000	212.95024900000001	11.85088700000000	0.42198600000000	0.00000000000000	-0.07715700000000	0.00000000000000	25.03696800000000	0.00000000000000	0.00000000000000	11.84209700000000	0.00000000000000	
14.43495100000000	-57.60346800000000	683.94621400000005	47.83869900000000	0.13991300000000	0.00000000000000	0.10741200000000	4.80355600000000	221.31889799999999	11.37348800000000	0.42319800000000	0.00000000000000	-0.07742600000000	0.00000000000000	24.82362300000000	0.00000000000000	0.00000000000000	11.66700700000000	0.00000000000000	
14.43661900000000	-57.95943600000000	677.70868199999995	46.97921400000000	0.13927500000000	0.00000000000000	0.10727500000000	6.04089600000000	229.74632099999999	10.84797100000000	0.42438400000000	0.00000000000000	-0.07768800000000	0.00000000000000	24.60752800000000	0.00000000000000	0.00000000000000	11.45865300000000	0.00000000000000	
14.43828000000000	-58.31013600000000	671.35792000000004	46.09991500000000	0.13865900000000	0.00000000000000	0.10713200000000	7.32728300000000	238.21585400000001	10.27273500000000	0.42554700000000	0.00000000000000	-0.07794500000000	0.00000000000000	24.38864400000000	0.00000000000000	0.00000000000000	11.21550700000000	0.00000000000000	
14.43994500000000	-58.65424700000000	664.89400400000000	45.20169500000000	0.13806600000000	0.00000000000000	0.10698300000000	8.66191900000000	246.71323699999999	9.64709100000000	0.42668600000000	0.00000000000000	-0.07819600000000	0.00000000000000	24.16692000000000	0.00000000000000	0.00000000000000	10.93671100000000	0.00000000000000	
14.44161100000000	-58.99040400000000	658.31702800000005	44.28549000000000	0.13749600000000	0.00000000000000	0.10682700000000	10.04317400000000	255.22662399999999	8.97120600000000	0.42780300000000	0.00000000000000	-0.07844300000000	0.00000000000000	23.94229600000000	0.00000000000000	0.00000000000000	10.62205200000000	0.00000000000000	
14.44327900000000	-59.31720200000000	651.62712299999998	43.35228300000000	0.13695100000000	0.00000000000000	0.10666500000000	11.46869300000000	263.74641200000002	8.24601600000000	0.42889700000000	0.00000000000000	-0.07868400000000	0.00000000000000	23.71470300000000	0.00000000000000	0.00000000000000	10.27189500000000	0.00000000000000	
